<svg width="81" height="142" viewBox="0 0 81 142" fill="none" xmlns="http://www.w3.org/2000/svg">
<g id="Logomark White 1" clip-path="url(#clip0_8108_184614)">
<path id="Vector" d="M44.6399 63.0344L80.3669 140.968H0.66333L36.3903 63.0344C36.753 62.2483 37.3343 61.5825 38.0655 61.1157C38.7965 60.649 39.6467 60.4009 40.5151 60.4009C41.3834 60.4009 42.2337 60.649 42.9647 61.1157C43.6959 61.5825 44.2773 62.2483 44.6399 63.0344Z" fill="white"/>
<path id="Vector_2" d="M40.5106 50.9549C54.3723 50.9549 65.6096 39.7605 65.6096 25.9513C65.6096 12.1421 54.3723 0.94751 40.5106 0.94751C26.6487 0.94751 15.4114 12.1421 15.4114 25.9513C15.4114 39.7605 26.6487 50.9549 40.5106 50.9549Z" fill="white"/>
</g>
<defs>
<clipPath id="clip0_8108_184614">
<rect width="80" height="140.235" fill="white" transform="translate(0.5 0.882324)"/>
</clipPath>
</defs>
</svg>
